<svg width="44" height="44" viewBox="0 0 44 44" fill="none" xmlns="http://www.w3.org/2000/svg">
<path d="M43.7122 8.7496C43.5953 8.60931 43.449 8.49643 43.2837 8.41897C43.1183 8.3415 42.938 8.30134 42.7554 8.30133H8.92466L7.85163 2.38663C7.73005 1.71681 7.37711 1.11094 6.8544 0.674753C6.3317 0.238565 5.6724 -0.000244038 4.99158 1.87138e-07H1.2453C0.915027 1.87138e-07 0.59828 0.13119 0.36474 0.364711C0.131201 0.598231 0 0.914953 0 1.2452C0 1.57545 0.131201 1.89217 0.36474 2.12569C0.59828 2.35921 0.915027 2.4904 1.2453 2.4904H4.98121C5.0795 2.4888 5.17517 2.52213 5.25118 2.58445C5.3272 2.64678 5.37863 2.73406 5.39631 2.83075L10.6909 31.9477C10.8589 32.8765 11.3115 33.7301 11.986 34.3903C11.1715 35.0418 10.5632 35.9154 10.2348 36.9054C9.90638 37.8953 9.87196 38.9592 10.1357 39.9683C10.3994 40.9775 10.95 41.8885 11.7207 42.5913C12.4915 43.294 13.4494 43.7584 14.4786 43.9281C15.5078 44.0978 16.5641 43.9656 17.5197 43.5476C18.4753 43.1295 19.2893 42.4434 19.8631 41.5724C20.4369 40.7014 20.746 39.6828 20.7529 38.6398C20.7598 37.5969 20.4642 36.5742 19.902 35.6957H30.7403C30.0949 36.7055 29.8042 37.9014 29.9138 39.0948C30.0234 40.2882 30.5272 41.4111 31.3458 42.2864C32.1643 43.1618 33.2509 43.7397 34.4344 43.9292C35.6178 44.1187 36.8306 43.9088 37.8815 43.3327C38.9324 42.7567 39.7617 41.8472 40.2384 40.7477C40.7152 39.6482 40.8123 38.4213 40.5146 37.2605C40.2168 36.0997 39.541 35.0711 38.5939 34.3368C37.6467 33.6025 36.482 33.2045 35.2836 33.2053H15.1865C14.7004 33.2054 14.2297 33.0349 13.8565 32.7235C13.4833 32.4121 13.2312 31.9797 13.1442 31.5015L12.397 27.3944H36.9647C38.0341 27.3947 39.0696 27.0196 39.8908 26.3347C40.712 25.6497 41.2667 24.6983 41.4582 23.6463L43.9799 9.76859C44.0125 9.5895 44.0054 9.40544 43.9591 9.22939C43.9129 9.05333 43.8286 8.88956 43.7122 8.7496ZM18.2644 38.6012C18.2644 39.1758 18.094 39.7376 17.7747 40.2154C17.4554 40.6932 17.0016 41.0656 16.4707 41.2855C15.9397 41.5054 15.3555 41.5629 14.7918 41.4508C14.2282 41.3387 13.7104 41.062 13.3041 40.6557C12.8977 40.2493 12.621 39.7316 12.5088 39.168C12.3967 38.6044 12.4543 38.0202 12.6742 37.4893C12.8941 36.9584 13.2666 36.5046 13.7444 36.1854C14.2222 35.8661 14.784 35.6957 15.3587 35.6957C16.1294 35.6957 16.8684 36.0018 17.4134 36.5467C17.9583 37.0916 18.2644 37.8306 18.2644 38.6012ZM38.1893 38.6012C38.1893 39.1758 38.0188 39.7376 37.6996 40.2154C37.3803 40.6932 36.9265 41.0656 36.3955 41.2855C35.8646 41.5054 35.2803 41.5629 34.7167 41.4508C34.153 41.3387 33.6353 41.062 33.2289 40.6557C32.8225 40.2493 32.5458 39.7316 32.4337 39.168C32.3216 38.6044 32.3791 38.0202 32.599 37.4893C32.819 36.9584 33.1914 36.5046 33.6692 36.1854C34.1471 35.8661 34.7089 35.6957 35.2836 35.6957C36.0542 35.6957 36.7933 36.0018 37.3382 36.5467C37.8831 37.0916 38.1893 37.8306 38.1893 38.6012ZM39.007 23.2001C38.92 23.6783 38.6679 24.1108 38.2947 24.4222C37.9215 24.7336 37.4508 24.9041 36.9647 24.904H11.9445L9.3792 10.7917H41.2631L39.007 23.2001Z" fill="black"/>
</svg>
