<svg width="52" height="52" viewBox="0 0 52 52" fill="none" xmlns="http://www.w3.org/2000/svg">
<path d="M26 0C20.8577 0 15.8309 1.52487 11.5552 4.38179C7.27951 7.23871 3.94702 11.2994 1.97914 16.0502C0.0112649 20.8011 -0.503621 26.0288 0.499594 31.0723C1.50281 36.1158 3.97907 40.7486 7.61523 44.3848C11.2514 48.0209 15.8842 50.4972 20.9277 51.5004C25.9712 52.5036 31.1989 51.9887 35.9498 50.0209C40.7007 48.053 44.7613 44.7205 47.6182 40.4448C50.4751 36.1691 52 31.1423 52 26C51.9919 19.1069 49.25 12.4984 44.3758 7.62416C39.5016 2.74997 32.8932 0.0080953 26 0ZM11.5828 43.8431C13.0785 41.356 15.1922 39.298 17.7185 37.8694C20.2448 36.4407 23.0977 35.6899 26 35.6899C28.9023 35.6899 31.7552 36.4407 34.2815 37.8694C36.8078 39.298 38.9215 41.356 40.4173 43.8431C36.3398 47.1496 31.2496 48.954 26 48.954C20.7504 48.954 15.6603 47.1496 11.5828 43.8431ZM17.3333 23.9608C17.3333 22.2467 17.8416 20.5711 18.7939 19.1458C19.7462 17.7206 21.0998 16.6098 22.6834 15.9538C24.267 15.2979 26.0096 15.1262 27.6908 15.4606C29.372 15.795 30.9162 16.6205 32.1283 17.8325C33.3403 19.0446 34.1657 20.5888 34.5001 22.27C34.8345 23.9512 34.6629 25.6937 34.007 27.2774C33.351 28.861 32.2402 30.2145 30.8149 31.1669C29.3897 32.1192 27.7141 32.6274 26 32.6274C23.7015 32.6274 21.4971 31.7144 19.8717 30.089C18.2464 28.4637 17.3333 26.2593 17.3333 23.9608ZM42.6986 41.7122C40.2956 37.9757 36.7037 35.1578 32.5026 33.7133C34.5974 32.318 36.1877 30.2857 37.0383 27.9167C37.8888 25.5478 37.9545 22.9681 37.2256 20.5589C36.4968 18.1497 35.012 16.0391 32.9909 14.5389C30.9698 13.0388 28.5196 12.2289 26.0026 12.2289C23.4856 12.2289 21.0354 13.0388 19.0142 14.5389C16.9931 16.0391 15.5083 18.1497 14.7795 20.5589C14.0506 22.9681 14.1163 25.5478 14.9669 27.9167C15.8174 30.2857 17.4077 32.318 19.5026 33.7133C15.3014 35.1578 11.7095 37.9757 9.30648 41.7122C6.23447 38.4522 4.18404 34.3642 3.40815 29.9525C2.63227 25.5408 3.16488 20.9986 4.94028 16.8861C6.71568 12.7736 9.65618 9.27077 13.399 6.80987C17.1418 4.34897 21.5232 3.03762 26.0026 3.03762C30.4819 3.03762 34.8633 4.34897 38.6061 6.80987C42.3489 9.27077 45.2894 12.7736 47.0648 16.8861C48.8402 20.9986 49.3728 25.5408 48.597 29.9525C47.8211 34.3642 45.7706 38.4522 42.6986 41.7122Z" fill="black"/>
</svg>
